<?xml version="1.0" encoding="utf-8"?>
<!-- Generator: Adobe Illustrator 26.5.0, SVG Export Plug-In . SVG Version: 6.00 Build 0)  -->
<svg version="1.0" id="Layer_1" xmlns="http://www.w3.org/2000/svg" xmlns:xlink="http://www.w3.org/1999/xlink" x="0px" y="0px"
	 viewBox="0 0 627.99 444.04" style="enable-background:new 0 0 627.99 444.04;" xml:space="preserve">
<path d="M317.24,260.18v-4.94H321c1.91,0,3.05,0.86,3.05,2.44l0,0c0,1.49-1.18,2.46-3,2.46L317.24,260.18z M326.69,257.57
	L326.69,257.57c0.03-1.18-0.41-2.32-1.22-3.17c-1.17-1.02-2.7-1.55-4.25-1.47h-6.56v14.7h2.58v-5.13h3.25l3.61,5.13h3.07l-4-5.57
	C325.29,261.63,326.78,259.72,326.69,257.57z M537.54,260.18v-4.94h3.76c1.92,0,3.05,0.86,3.05,2.44l0,0c0,1.49-1.17,2.46-3,2.46
	L537.54,260.18z M546.98,257.57L546.98,257.57c0.03-1.18-0.41-2.32-1.22-3.17c-1.17-1.02-2.7-1.55-4.25-1.47H535v14.7h2.59v-5.13
	h3.24l3.62,5.13h3.07l-4-5.57c2.1-0.45,3.57-2.34,3.48-4.49H546.98z M487.68,252.89h-2.58v14.7h10.32v-2.36h-7.74V252.89z
	 M354.85,217.89c-0.33,2.44-0.95,4.84-1.85,7.14c-0.82,2.15-2.06,4.11-3.64,5.78c-1.45,1.55-3.48,2.41-5.6,2.37
	c-2.77,0-4.79-0.83-6.08-2.49c-1.37-1.9-2.09-4.19-2.07-6.53c-0.04-2.1,0.12-4.2,0.45-6.28c0.36-2.42,1-4.8,1.9-7.08
	c0.82-2.14,2.04-4.1,3.6-5.78c1.43-1.55,3.46-2.41,5.57-2.37c2.81,0,4.86,0.82,6.15,2.45c1.37,1.91,2.1,4.22,2.07,6.57
	c0.02,2.1-0.15,4.2-0.5,6.27L354.85,217.89z M363.19,223.7c0.97-2.79,1.4-5.75,1.27-8.7c-0.06-2.23-0.53-4.43-1.39-6.49
	c-0.82-1.96-2.03-3.72-3.57-5.18c-1.59-1.49-3.46-2.66-5.5-3.44c-2.33-0.88-4.8-1.31-7.28-1.27c-2.92-0.04-5.81,0.54-8.49,1.71
	c-2.47,1.08-4.68,2.66-6.49,4.66c-1.83,2.04-3.23,4.42-4.13,7c-0.97,2.79-1.4,5.75-1.27,8.7c0.06,2.23,0.53,4.43,1.39,6.49
	c0.82,1.96,2.03,3.72,3.57,5.18c1.6,1.49,3.47,2.66,5.51,3.44c2.32,0.88,4.79,1.31,7.27,1.27c2.9,0.03,5.78-0.55,8.45-1.7
	c2.49-1.08,4.72-2.67,6.54-4.67c1.81-2.03,3.21-4.39,4.12-6.95L363.19,223.7z M337.1,259.38l-4.1-6.49h-3.07l5.85,8.9v5.8h2.61
	v-5.86l5.84-8.84h-3L337.1,259.38z M271.37,261.38c0,2.71-1.41,4.07-3.71,4.07c-2.3,0-3.72-1.44-3.72-4.17v-8.36h-2.59v8.46
	c0,4.26,2.44,6.47,6.27,6.47s6.33-2.21,6.33-6.59v-8.34h-2.58V261.38z M306.37,261.38c0,2.71-1.41,4.07-3.7,4.07
	c-2.29,0-3.67-1.42-3.67-4.2v-8.36h-2.6v8.46c0,4.26,2.44,6.47,6.27,6.47c3.83,0,6.33-2.21,6.33-6.59v-8.34h-2.59L306.37,261.38z
	 M309.49,209.32v-0.16c1.33-2.21,3.16-3.41,5.29-3.41c2.72,0,5,3.7,6.67,3.7c2.1,0,3.94-3.36,4.27-5.64s-1.23-5.16-5.63-4.95
	c-3.66,0-7.1,2.26-9.61,4.8v-0.11l1-4.75H308l-12.26,6.41l-0.51,2.37h2.69c0.58-0.08,1.17,0.12,1.58,0.55
	c0.27,0.6,0.29,1.28,0.06,1.9l-3.81,19.62c-0.12,1.04-0.64,1.98-1.44,2.65c-1.29,0.66-2.7,1.03-4.15,1.07l-0.49,2.69H309l0.57-2.69
	c-2-0.21-3.2-0.57-3.7-1.07c-0.55-0.77-0.69-1.76-0.38-2.65L309.49,209.32z M291.81,252.92h-3l-3.7,5.31l-3.64-5.31h-2.97l5.11,7.22
	l-5.32,7.48h3l3.87-5.61l3.89,5.61h3.05l-5.38-7.59L291.81,252.92z M450.64,263.31c0,1.32-1.09,2-2.84,2h-4.29v-4h4.1
	c2,0,3,0.73,3,2H450.64z M443.51,255.21h3.72c1.67,0,2.59,0.71,2.59,1.87l0,0c0,1.34-1.12,2-2.77,2h-3.54V255.21z M450.31,259.97
	c1.3-0.56,2.13-1.86,2.1-3.27l0,0c0.02-0.92-0.35-1.8-1-2.44c-1.06-0.93-2.45-1.39-3.85-1.3H441v14.7h6.82c3.28,0,5.45-1.41,5.45-4
	l0,0c0-2.14-1.2-3.13-2.92-3.72L450.31,259.97z M511.05,198.86c-3.66,0-7.09,2.26-9.6,4.8v-0.11l1-4.75H499l-12.27,6.41l-0.51,2.37
	h2.7c0.58-0.08,1.17,0.12,1.57,0.55c0.28,0.6,0.3,1.28,0.06,1.9l-3.8,19.62c-0.12,1.04-0.64,1.99-1.45,2.65
	c-1.28,0.66-2.7,1.03-4.14,1.07l-0.5,2.69H500l0.58-2.69c-2-0.21-3.2-0.57-3.71-1.07s-0.62-1.39-0.37-2.65l4-20.33v-0.16
	c1.34-2.21,3.17-3.41,5.3-3.41c2.72,0,5,3.7,6.67,3.7c2.1,0,3.94-3.36,4.27-5.64s-1.24-5.19-5.65-4.98L511.05,198.86z
	 M267.15,230.49c-1.92,0.71-3.95,1.05-6,1h-8.45c-1.64,0-2.29-0.79-1.95-2.38l4-20.32h9c3.49,0,6.13,0.81,7.94,2.45
	c1.83,1.7,2.88,4.07,2.92,6.56c0.12,1.83-0.11,3.67-0.67,5.42c-1.06,3.32-3.57,5.99-6.83,7.24L267.15,230.49z M258.86,187.49
	c0.13-0.67,0.48-1.29,1-1.74c0.53-0.43,1.19-0.65,1.87-0.63h5.31c3.49,0,6.16,0.52,8,1.58c1.84,1.06,2.85,2.9,3,5.54
	c0.21,4.11-0.85,7.15-3.17,9.13c-2.32,1.98-5.54,2.98-9.67,3h-9.59L258.86,187.49z M279.46,231.71c2.15-1.37,3.91-3.28,5.1-5.54
	c1.19-2.43,1.71-5.13,1.49-7.83c-0.11-2.63-1.14-5.13-2.91-7.08c-1.96-2.24-4.58-3.78-7.49-4.39c3.84-0.5,7.44-2.14,10.35-4.7
	c2.6-2.32,3.79-5.54,3.57-9.65c-0.04-2.02-0.67-3.99-1.8-5.66c-0.99-1.57-2.4-2.83-4.08-3.63c-2.29-1.02-4.71-1.7-7.2-2
	c-3.16-0.42-6.35-0.62-9.54-0.59h-27.67l-0.63,4.68c1.38,0.11,5.56,0.24,6.44,0.4c0.74,0.09,1.43,0.39,2,0.87
	c0.48,0.49,0.74,1.14,0.73,1.82c0,1.19-0.11,2.37-0.35,3.53l-6.89,33.48c-0.18,1.07-0.48,2.12-0.91,3.12
	c-0.32,0.71-0.82,1.33-1.45,1.78c-0.7,0.46-1.5,0.75-2.33,0.87c-0.95,0.16-2.13,0.29-3.55,0.4l-0.88,4.42h29.41
	c3.65,0.03,7.3-0.32,10.88-1.07c2.76-0.58,5.38-1.68,7.71-3.26V231.71z M436.3,210.15c0.51-1.9,0.53-3.91,0.05-5.82
	c-0.39-1.36-1.15-2.58-2.2-3.52c-1.02-0.85-2.24-1.44-3.54-1.7c-1.31-0.28-2.66-0.43-4-0.44c-2.26,0.03-4.5,0.42-6.63,1.15
	c-2.11,0.68-4.15,1.57-6.09,2.65l4.5-23.09h-3.57l-12.27,6.4l-0.43,2.37h2.62c0.58-0.08,1.17,0.13,1.57,0.56
	c0.28,0.6,0.3,1.28,0.06,1.9l-7.55,38.91c-0.12,1.04-0.63,1.99-1.44,2.65c-1.28,0.67-2.7,1.03-4.15,1.07l-0.49,2.69h19.34l0.57-2.69
	c-2-0.21-3.2-0.56-3.7-1.07s-0.63-1.38-0.38-2.65L413,206.9c1.43-0.86,2.94-1.57,4.52-2.1c1.51-0.49,3.09-0.75,4.68-0.75
	c1.4-0.11,2.77,0.4,3.76,1.39c0.81,0.92,1,2.44,0.59,4.55l-5.06,25.94h14.59l0.49-2.69c-2-0.21-3.19-0.56-3.66-1.07
	s-0.59-1.38-0.34-2.65L436.3,210.15z M510.8,260.28c0.09,2.64-1.97,4.86-4.62,4.96c-0.16,0.01-0.33,0-0.49-0.01h-2.9v-10h2.9
	c2.66-0.16,4.95,1.88,5.1,4.54c0.01,0.15,0.01,0.31,0.01,0.46V260.28z M505.69,252.89h-5.49v14.7h5.49c4.63,0,7.82-3.22,7.82-7.35
	l0,0C513.51,256.03,510.32,252.89,505.69,252.89z M366.69,259h-7v-6.11H357v14.7h2.59v-6.2h7v6.2h2.58v-14.7h-2.58L366.69,259z
	 M521.39,261.35h7.38v-2.32h-7.38v-3.82h8.33v-2.31h-10.97v14.7h11v-2.31h-8.44L521.39,261.35z M381,236.8
	c1.24-0.06,2.48-0.2,3.7-0.43c1.12-0.2,2.22-0.51,3.28-0.91l0.82-4c-0.79,0.33-1.62,0.57-2.46,0.71c-0.82,0.16-1.65,0.24-2.48,0.24
	c-1.48,0-2.47-0.43-3-1.31s-0.56-2.25-0.18-4.15l4.42-23h9l0.74-4.12h-9l2.48-11.8h-3.65c-1.2,3.15-2.98,6.05-5.25,8.54
	c-2.34,2.36-5.21,4.12-8.37,5.14l-0.44,2.3h4.76l-4.18,21.51c-0.12,0.57-0.21,1.16-0.27,1.74c-0.05,0.53-0.12,1.06-0.19,1.58
	c-0.28,2.8,0.26,4.8,1.62,6c1.55,1.25,3.47,1.96,5.46,2C378.87,236.93,379.94,236.92,381,236.8z M402.36,259.8l-4.49-6.95h-2.77
	v14.7h2.54v-10.5l4.61,6.89h0.09l4.66-6.91v10.54h2.59v-14.7h-2.76L402.36,259.8z M418.63,261.31H426v-2.28h-7.38v-3.82h8.33v-2.31
	H416v14.7h11v-2.31h-8.43L418.63,261.31z M387.17,260.24c0.09,2.76-2.08,5.07-4.84,5.16c-0.05,0-0.11,0-0.16,0c-2.76,0-5-2.23-5-5
	c0-0.07,0-0.14,0-0.2l0,0c-0.09-2.76,2.07-5.07,4.83-5.17c0.06,0,0.12,0,0.17,0c2.76,0,5,2.23,5,5
	C387.17,260.09,387.17,260.17,387.17,260.24L387.17,260.24z M382.17,252.6c-4.16-0.1-7.62,3.19-7.72,7.36c0,0.08,0,0.16,0,0.24l0,0
	c0,4.25,3.45,7.7,7.71,7.69c4.25,0,7.69-3.45,7.69-7.69l0,0c0.05-4.13-3.25-7.51-7.38-7.56c-0.1,0-0.2,0-0.29,0L382.17,252.6z
	 M185.52,265.4c-2.76-0.07-4.94-2.36-4.87-5.12c0-0.03,0-0.05,0-0.08l0,0c-0.13-2.73,1.98-5.04,4.7-5.17c0.05,0,0.1,0,0.15,0
	c1.57,0.03,3.06,0.68,4.15,1.81l1.66-1.91c-1.52-1.54-3.62-2.38-5.78-2.29c-4.11-0.08-7.5,3.19-7.58,7.3c0,0.1,0,0.2,0,0.3l0,0
	c-0.09,4.08,3.14,7.46,7.22,7.56c0.09,0,0.18,0,0.27,0c2.29,0.08,4.5-0.88,6-2.61l-1.66-1.67c-1.08,1.21-2.63,1.91-4.25,1.92
	L185.52,265.4z M553,258.52c-1.41,0.01-2.56-1.14-2.57-2.55c-0.01-1.41,1.14-2.56,2.55-2.57s2.56,1.14,2.57,2.55
	c0.03,1.39-1.08,2.54-2.47,2.57C553.05,258.52,553.03,258.52,553,258.52z M553,252.93c-1.66,0-3,1.34-3,3s1.34,3,3,3s3-1.34,3-3
	S554.66,252.93,553,252.93z M156.53,218.03c-0.36,2.43-1,4.8-1.9,7.08c-0.82,2.14-2.05,4.1-3.63,5.76c-1.45,1.55-3.48,2.41-5.6,2.37
	c-2.76,0-4.79-0.83-6.08-2.49c-1.36-1.9-2.09-4.19-2.07-6.53c-0.04-2.11,0.12-4.21,0.46-6.29c0.36-2.42,1-4.79,1.9-7.07
	c0.34-0.86,0.74-1.7,1.19-2.5c0.67-1.19,1.48-2.29,2.41-3.28c1.43-1.55,3.45-2.41,5.56-2.37c2.81,0,4.86,0.82,6.15,2.45
	c1.38,1.91,2.11,4.21,2.08,6.56C157.03,213.83,156.87,215.94,156.53,218.03z M161.18,203.48c-1.6-1.49-3.47-2.67-5.51-3.45
	c-2.32-0.88-4.79-1.31-7.27-1.27c-2.92-0.04-5.81,0.54-8.49,1.7c-2.47,1.08-4.69,2.67-6.5,4.67c-1.82,2.04-3.22,4.42-4.12,7
	c-0.98,2.79-1.41,5.74-1.28,8.7c0.06,2.23,0.54,4.43,1.4,6.49c0.82,1.96,2.04,3.72,3.59,5.17c1.6,1.49,3.47,2.66,5.51,3.44
	c2.32,0.87,4.79,1.3,7.27,1.26c2.91,0.04,5.78-0.54,8.45-1.7c2.49-1.07,4.71-2.66,6.54-4.66c1.82-2.04,3.23-4.42,4.13-7
	c0.97-2.8,1.4-5.75,1.27-8.71c-0.07-2.23-0.54-4.42-1.39-6.48c-0.83-1.96-2.05-3.72-3.6-5.18V203.48z M138.18,261.37h7.39v-2.34
	h-7.41v-3.82h8.34v-2.31h-10.92v14.7h11v-2.31h-8.42L138.18,261.37z M155.18,260.2v-4.94h3.76c1.92,0,3,0.86,3,2.44l0,0
	c0,1.49-1.18,2.46-3,2.46L155.18,260.2z M164.62,257.59L164.62,257.59c0.03-1.18-0.41-2.32-1.22-3.17c-1.17-1.02-2.7-1.55-4.25-1.47
	h-6.63v14.7h2.59v-5.13h3.24l3.65,5.07h3l-4-5.57c2.11-0.41,3.61-2.3,3.55-4.45L164.62,257.59z M187.92,233.34
	c-2-0.21-3.2-0.57-3.7-1.07s-0.63-1.38-0.38-2.65l9.81-50.15H190l-12.27,6.41l-0.43,2.37h2.61c0.58-0.08,1.17,0.13,1.58,0.55
	c0.28,0.6,0.3,1.28,0.06,1.9L174,229.6c-0.12,1.04-0.63,1.99-1.44,2.65c-1.29,0.66-2.7,1.03-4.15,1.07l-0.49,2.69h19.34
	L187.92,233.34z M121.92,259.86l-4.48-6.95h-2.79v14.7h2.55v-10.5l4.61,6.92h0.08l4.65-7v10.54h2.59v-14.7h-2.76L121.92,259.86z
	 M96,199.36c0.46-2.02-0.33-4.11-2-5.33c-2.32-1.62-5.52-1.06-7.14,1.26c-0.6,0.86-0.92,1.88-0.93,2.93c0,0.64,0.12,1.28,0.36,1.87
	c-0.19,0.01-0.37,0.01-0.56,0c-4.76,0.02-8.63-3.83-8.65-8.59c-0.01-2.86,1.4-5.54,3.76-7.15c7.21-4.07,21.19,1.45,29.5,4.21
	l0.66,0.23l-7.32,36.18c-1.32,6.51-2.45,7.09-8.29,7.6l-0.69,3.54h24.15l0.69-3.54c-5.61-0.51-6.78,0.65-5.19-7.67
	c0,0,6.66-33.34,6.86-34.58c8.45,1.37,19.89,0.32,25.8-2.49l-0.86-3l0,0c-11,2.78-24.73-2.9-34.8-5.37l-3.71-0.88
	c-7.6-2.07-20.79-3.92-27.86,0.06c-2.08,1.16-3.85,2.81-5.17,4.79c-1.51,2.04-2.41,4.47-2.62,7c0,0.27-0.02,0.53-0.06,0.78
	c0,0.09,0,0.18,0,0.27s0,0,0,0.08s0,0.11,0,0.16v0.56c0.19,3.63,1.82,7.04,4.53,9.46l0.15,0.13c0.21,0.19,0.43,0.37,0.66,0.55
	l0.3,0.22l0.59,0.41l0.16,0.11l0,0c2.19,1.38,4.72,2.12,7.31,2.12c7.45,0,9.59-4,9.93-4.72C95.75,200.17,95.9,199.77,96,199.36z
	 M99.76,261.75l2.53-5.88l2.54,5.88H99.76z M101.13,252.75l-6.48,14.8h2.65l1.53-3.52h7l1.49,3.55H110l-6.48-14.8L101.13,252.75z
	 M549.42,219.64c-0.77-1.24-1.79-2.31-3-3.13c-1.28-0.86-2.65-1.57-4.08-2.13c-1.48-0.58-2.93-1.11-4.36-1.59
	c-1.75-0.59-3.45-1.33-5.07-2.21c-1.32-0.61-2.16-1.94-2.14-3.4c-0.02-1.33,0.56-2.59,1.58-3.44c1.39-1.03,3.11-1.52,4.84-1.39
	c2.49,0.02,4.92,0.83,6.93,2.3c2.43,1.86,4.22,4.43,5.12,7.35l2.53-0.31l-0.87-11.87h-2.46l-1.34,2.22
	c-1.24-1.03-2.63-1.84-4.13-2.42c-2-0.73-4.13-1.07-6.26-1c-2.12-0.02-4.23,0.27-6.26,0.87c-1.79,0.55-3.46,1.41-4.95,2.54
	c-1.35,0.98-2.46,2.25-3.25,3.72c-0.78,1.46-1.17,3.09-1.15,4.74c-0.06,1.48,0.31,2.95,1.07,4.23c0.72,1.14,1.66,2.13,2.77,2.89
	c1.19,0.81,2.47,1.48,3.81,2c1.4,0.55,2.78,1.06,4.16,1.54c1.11,0.37,2.18,0.75,3.21,1.15c0.95,0.35,1.86,0.79,2.73,1.3
	c0.74,0.43,1.39,0.99,1.91,1.66c0.47,0.64,0.72,1.42,0.71,2.22c0.12,1.78-0.77,3.47-2.3,4.39c-1.64,0.95-3.5,1.42-5.39,1.38
	c-1.47,0-2.92-0.23-4.32-0.67c-1.48-0.46-2.88-1.13-4.16-2c-1.39-0.96-2.62-2.14-3.65-3.48c-1.18-1.56-2.12-3.29-2.77-5.14
	l-2.38,0.32l1.27,13.68h2.46l1.42-2.61c1.6,1.09,3.33,1.97,5.16,2.61c2.31,0.83,4.75,1.23,7.21,1.19c2.17,0.01,4.33-0.28,6.42-0.87
	c1.89-0.53,3.68-1.38,5.27-2.53c1.47-1.05,2.69-2.42,3.57-4c0.89-1.68,1.34-3.55,1.3-5.45c0.07-1.62-0.33-3.22-1.14-4.62
	L549.42,219.64z M470.63,210.74h-16.15c0.76-2.17,1.99-4.15,3.61-5.78c1.65-1.61,3.88-2.46,6.18-2.37c1.96-0.13,3.88,0.6,5.26,2
	c1.23,1.44,1.61,3.44,1.12,6.19L470.63,210.74z M475.7,202.74c-1.48-1.39-3.25-2.43-5.18-3.05c-4.96-1.54-10.29-1.35-15.12,0.56
	c-2.53,1.02-4.82,2.55-6.73,4.5c-1.96,2.03-3.49,4.44-4.47,7.09c-1.1,2.97-1.58,6.13-1.42,9.29c0.07,2.16,0.56,4.28,1.44,6.25
	c0.88,1.93,2.14,3.67,3.71,5.1c1.66,1.5,3.6,2.66,5.71,3.4c2.39,0.85,4.91,1.27,7.45,1.23c3.61,0.1,7.17-0.89,10.21-2.85
	c3.11-2.19,5.71-5.02,7.63-8.3l-3.32-2.14c-1.57,2.6-3.67,4.85-6.15,6.6c-2.1,1.49-4.6,2.31-7.17,2.34c-3.17,0-5.54-0.9-7.11-2.69
	c-1.66-2.03-2.55-4.58-2.51-7.2c-0.04-1.28-0.01-2.56,0.1-3.84c0.11-1.37,0.3-2.73,0.57-4.07h25.86c0.35-2.38,0.2-4.8-0.44-7.12
	c-0.55-1.93-1.6-3.69-3.04-5.09L475.7,202.74z M202.4,185.86l-0.4,2.37h2.62c0.58-0.08,1.17,0.13,1.57,0.55
	c0.28,0.6,0.3,1.28,0.06,1.9l-7.54,38.92c-0.12,1.04-0.64,1.99-1.45,2.65c-1.28,0.67-2.7,1.03-4.15,1.07l-0.49,2.69h19.34l0.57-2.69
	c-2-0.21-3.19-0.57-3.7-1.07s-0.62-1.38-0.37-2.65l9.81-50.15h-3.57L202.4,185.86z M228.23,259.03c-2.84-0.67-3.52-1.17-3.52-2.31
	l0,0c0-1,0.89-1.74,2.4-1.74c1.46,0.06,2.87,0.59,4,1.51l1.39-1.95c-1.5-1.23-3.4-1.89-5.34-1.85c-2.93,0-5,1.74-5,4.26l0,0
	c0,2.7,1.76,3.63,4.9,4.38c2.73,0.63,3.32,1.2,3.32,2.25l0,0c0,1.09-1,1.85-2.61,1.85c-1.73-0.02-3.39-0.7-4.64-1.91l-1.56,1.84
	c1.68,1.53,3.87,2.38,6.14,2.36c3.09,0,5.26-1.64,5.26-4.39l0,0C232.94,260.93,231.34,259.82,228.23,259.03z M476.47,267.56h2.59
	v-14.7h-2.59V267.56z M249.47,252.86h-2.59v14.7h10.33v-2.33h-7.74V252.86z M468.08,261.32c0,2.71-1.41,4.07-3.7,4.07
	s-3.73-1.44-3.73-4.17v-8.36h-2.58v8.46c0,4.26,2.43,6.47,6.26,6.47s6.33-2.21,6.33-6.59v-8.34h-2.58V261.32z M213.82,259.16h1.34
	l2.07-6.19v-0.11h-2.93L213.82,259.16z M170,267.59h2.59v-14.7H170V267.59z M553.7,255.41c0,0.25-0.19,0.43-0.53,0.43h-0.67v-0.89
	h0.66c0.33,0,0.54,0.15,0.54,0.44V255.41z M554.38,255.41L554.38,255.41c0.01-0.24-0.08-0.48-0.25-0.66
	c-0.26-0.24-0.6-0.36-0.95-0.34h-1.36v3.06h0.68v-1h0.5l0.65,1h0.79l-0.75-1.1c0.44-0.12,0.74-0.54,0.69-1V255.41z M200.08,261.79
	l2.53-5.88l2.54,5.88H200.08z M201.45,252.79l-6.45,14.8h2.65l1.51-3.55h7l1.49,3.55h2.74l-6.48-14.8H201.45z"/>
</svg>
